<?xml version="1.0" standalone="no"?>
<!DOCTYPE svg PUBLIC "-//W3C//DTD SVG 20010904//EN"
 "http://www.w3.org/TR/2001/REC-SVG-20010904/DTD/svg10.dtd">
<svg version="1.0" xmlns="http://www.w3.org/2000/svg"
 width="225.000000pt" height="225.000000pt" viewBox="0 0 225.000000 225.000000"
 preserveAspectRatio="xMidYMid meet">

<g transform="translate(0.000000,225.000000) scale(0.100000,-0.100000)"
fill="#000000" stroke="none">
<path d="M930 2025 c-247 -51 -471 -200 -612 -408 -176 -259 -216 -591 -107
-891 75 -208 261 -421 451 -517 32 -16 59 -29 61 -29 2 0 7 39 10 88 3 55 30
189 73 370 67 282 67 283 53 340 -30 121 -11 224 53 297 49 55 100 74 156 57
64 -19 86 -52 90 -132 4 -60 -2 -90 -38 -212 -24 -79 -43 -162 -43 -184 -1
-157 207 -197 328 -62 107 117 165 381 120 547 -49 186 -250 291 -481 252
-229 -39 -385 -223 -384 -453 1 -93 14 -138 54 -190 26 -34 26 -38 15 -84 -23
-94 -34 -100 -105 -59 -96 56 -157 189 -158 340 0 166 55 297 179 420 137 138
295 198 515 198 107 0 137 -4 205 -26 203 -66 351 -216 400 -402 43 -167 -3
-416 -107 -570 -61 -93 -112 -137 -208 -184 -72 -34 -80 -36 -180 -36 -116 0
-163 16 -226 77 l-31 29 -38 -151 c-26 -103 -51 -178 -80 -236 l-42 -84 36
-10 c170 -46 397 -34 569 30 259 97 472 302 573 555 98 246 90 534 -21 771
-53 114 -111 197 -199 284 -143 142 -322 235 -515 269 -81 15 -286 12 -366 -4z"/>
</g>
</svg>
